<?xml version="1.0" encoding="utf-8"?>
<!-- Generator: Adobe Illustrator 19.1.0, SVG Export Plug-In . SVG Version: 6.00 Build 0)  -->
<svg version="1.1" id="Layer_1" xmlns="http://www.w3.org/2000/svg" xmlns:xlink="http://www.w3.org/1999/xlink" x="0px" y="0px"
	 viewBox="0 0 210.9 150.3" style="enable-background:new 0 0 210.9 150.3;" xml:space="preserve">
<style type="text/css">
	.st0{fill-rule:evenodd;clip-rule:evenodd;fill:#FFFFFF;}
	.st1{fill-rule:evenodd;clip-rule:evenodd;fill:url(#SVGID_1_);}
	.st2{fill-rule:evenodd;clip-rule:evenodd;}
	.st3{clip-path:url(#SVGID_3_);fill-rule:evenodd;clip-rule:evenodd;fill:url(#SVGID_4_);}
	.st4{fill-rule:evenodd;clip-rule:evenodd;fill:url(#SVGID_5_);}
</style>
<g>
	<path class="st0" d="M83.4,118.7c-6.9,0-10.8,4-11.8,11.9l-0.8,8.2c-0.3,3.4-1.9,5.3-4.9,5.7c-0.8,0-1.2,0.4-1.2,1.2v3.3
		c0,0.7,0.4,1.1,1.2,1.1c6.6,0,10.2-3.9,11-11.6l0.8-7.2c0.2-2.7,0.7-4.4,1.4-5.2c0.8-1,2.4-1.5,4.6-1.5h5.2v24.1
		c0,0.7,0.3,1.1,1.1,1.1h3.8c0.7,0,1.1-0.4,1.1-1.1v-28.8c0-0.8-0.4-1.2-1.1-1.2H83.4L83.4,118.7z"/>
	<path class="st0" d="M40.7,136.7v-16.8c0-0.8-0.4-1.2-1.2-1.2h-3.9c-0.7,0-1.1,0.4-1.1,1.2v18.8c0,7.7,3.7,11.6,11,11.6
		c3.6,0,6.9-1.3,10.1-3.9l0.7,2.7c0.3,0.5,0.7,0.6,1,0.6H60c0.8,0,1.2-0.3,1.2-1v-28.9c0-0.8-0.5-1.2-1.3-1.2h-3.7
		c-0.8,0-1.2,0.4-1.2,1.2v20.2c-2.3,2.7-5.2,4.1-8.5,4.1C42.6,144.2,40.7,141.7,40.7,136.7L40.7,136.7z"/>
	<path class="st0" d="M29.9,135.7c0-9.6-5.2-14.4-15.7-14.4H6.4v-9.5h18.1c0.8,0,1.1-0.5,1.2-1.3v-3.5c-0.1-0.9-0.4-1.3-1.2-1.3H1.2
		c-0.8,0-1.2,0.5-1.2,1.3v29.6c0,8.8,4.2,13.2,12.5,13.2h1.1C24.5,150,29.9,145.2,29.9,135.7L29.9,135.7z M14.4,127.2
		c6,0,9,2.9,9,8.6c0,5.5-3,8.3-9,8.4h-2c-4-0.1-6.1-2.3-6.1-6.7v-10.2H14.4L14.4,127.2z"/>
	<path class="st0" d="M185.5,131.2h-14.2v-11.3c0-0.8-0.4-1.2-1.2-1.2h-3.8c-0.7,0-1,0.4-1,1.2v28.8c-0.1,0.7,0.3,1.1,1,1.1h3.8
		c0.8,0,1.2-0.4,1.2-1.1v-11.9h14.2v11.9c0,0.7,0.5,1.1,1.2,1.1h3.7c0.8,0,1.2-0.4,1.2-1.1v-28.8c0-0.8-0.4-1.2-1.2-1.2h-3.7
		c-0.8,0-1.2,0.4-1.2,1.2V131.2L185.5,131.2z"/>
	<path class="st0" d="M157,118.7h-3.8c-0.9,0-1.3,0.4-1.3,1.2v20.2c-2.3,2.7-5.1,4.1-8.5,4.1c-3.8,0-5.7-2.5-5.7-7.5v-16.8
		c0-0.8-0.4-1.2-1.1-1.2h-3.8c-0.9,0-1.3,0.4-1.3,1.2v18.8c0,7.7,3.7,11.6,11,11.6c3.9,0,7.3-1.3,10.2-3.9l0.6,2.7
		c0.3,0.5,0.6,0.6,1,0.6h2.7c0.7,0,1.1-0.3,1.1-1v-28.9C158.1,119.1,157.7,118.7,157,118.7L157,118.7z"/>
	<path class="st0" d="M158,107.1c0-0.9-0.4-1.3-1.2-1.3h-24c-0.9,0-1.3,0.5-1.3,1.3v3.5c0,0.8,0.5,1.3,1.3,1.3h24
		c0.8,0,1.2-0.5,1.2-1.3V107.1L158,107.1z"/>
	<path class="st0" d="M118,124.6c0.6,0.8,0.9,2.1,0.9,3.9v0.7l-6.8,0.3c-7.7,0.5-11.5,3.9-11.5,10.3c0,6.9,3.9,10.4,11.7,10.4
		c2.8,0,5.5-0.7,8-2.3l0.5,1.1c0.5,0.5,0.8,0.6,1.1,0.6h2.4c0.6,0,0.9-0.3,0.9-1v-20.3c0-7.2-4-10.9-12.1-10.9
		c-3.5,0-6.6,0.5-9.3,1.6c-0.5,0.4-0.7,0.8-0.7,1.1v3.5c0.1,0.5,0.3,0.8,0.5,1c0.5,0.1,0.8,0.1,1,0.1c2.5-1,5.4-1.4,8.5-1.4
		C115.5,123.5,117.1,123.9,118,124.6L118,124.6z M112.3,144.5c-3.5,0-5.2-1.6-5.2-4.7c-0.1-3.1,1.6-4.7,4.9-5l6.8-0.7l0.1,8.4
		C116.6,143.9,114.4,144.5,112.3,144.5L112.3,144.5z"/>
	<g>
		<polygon class="st0" points="210.9,118.9 210.8,118.7 209.5,118.7 207.5,123.3 205.6,118.7 204.2,118.7 204.2,126 205.4,126 
			205.4,120.9 207,124.9 208,124.9 209.8,120.9 209.6,125.8 209.8,126 210.8,126 210.9,125.8 210.9,118.9 		"/>
		<polygon class="st0" points="203.3,118.9 203.1,118.7 198.3,118.7 198.3,119.9 200.1,119.9 200.1,125.8 200.3,126 201.2,126 
			201.2,119.9 203.1,119.9 203.3,119.7 203.3,118.9 		"/>
	</g>
</g>
<g>
	<linearGradient id="SVGID_1_" gradientUnits="userSpaceOnUse" x1="48.8799" y1="46.2319" x2="141.3501" y2="46.2319">
		<stop  offset="0" style="stop-color:#D89141"/>
		<stop  offset="0.1" style="stop-color:#FBB034"/>
		<stop  offset="0.3" style="stop-color:#FFC233"/>
		<stop  offset="0.4893" style="stop-color:#FFDD2F"/>
		<stop  offset="0.65" style="stop-color:#FFF32A"/>
		<stop  offset="0.737" style="stop-color:#FFE42F"/>
		<stop  offset="0.8871" style="stop-color:#F2C837"/>
		<stop  offset="1" style="stop-color:#E6B13B"/>
	</linearGradient>
	<path class="st1" d="M95.1,0c25.5,0,46.2,20.7,46.2,46.2c0,25.5-20.7,46.2-46.2,46.2c-25.5,0-46.2-20.7-46.2-46.2
		C48.9,20.7,69.6,0,95.1,0L95.1,0z"/>
	<path class="st2" d="M60.5,15.6c22.3-1.9,46.8-2,69.2,0C121.2,6,108.9,0,95.1,0C81.3,0,69,6,60.5,15.6L60.5,15.6z"/>
	<path class="st2" d="M130.2,76.4c-21.7,1.7-47.5,1.8-70.1,0c8.5,9.9,21,16.1,35.1,16.1C109.1,92.5,121.7,86.2,130.2,76.4
		L130.2,76.4z"/>
	<path class="st2" d="M50.4,34.5c30.1-0.5,59.4-0.6,89.4,0c1,3.8,1.5,7.7,1.5,11.7c0,3.5-0.4,7-1.1,10.2c-30.4,0.9-60.4,0.7-90.2,0
		c-0.7-3.3-1.1-6.7-1.1-10.2C48.9,42.2,49.4,38.2,50.4,34.5L50.4,34.5z"/>
	<g>
		<defs>
			<path id="SVGID_2_" d="M95.1,0c25.5,0,46.2,20.7,46.2,46.2c0,25.5-20.7,46.2-46.2,46.2c-25.5,0-46.2-20.7-46.2-46.2
				C48.9,20.7,69.6,0,95.1,0L95.1,0z"/>
		</defs>
		<clipPath id="SVGID_3_">
			<use xlink:href="#SVGID_2_"  style="overflow:visible;"/>
		</clipPath>
		<radialGradient id="SVGID_4_" cx="117.1408" cy="21.2889" r="45.8582" gradientUnits="userSpaceOnUse">
			<stop  offset="0" style="stop-color:#FFFFFF;stop-opacity:0.7"/>
			<stop  offset="1" style="stop-color:#FFFFFF;stop-opacity:0"/>
		</radialGradient>
		<path class="st3" d="M163.1,21.3c0,25.3-20.6,45.8-45.9,45.8c-25.4,0-45.9-20.5-45.9-45.8c0-25.3,20.6-45.8,45.9-45.8
			C142.5-24.5,163.1-4,163.1,21.3z"/>
	</g>
	<radialGradient id="SVGID_5_" cx="95.1147" cy="46.2319" r="46.2337" gradientUnits="userSpaceOnUse">
		<stop  offset="0.9" style="stop-color:#FFFFFF;stop-opacity:0"/>
		<stop  offset="1" style="stop-color:#FFFFFF;stop-opacity:0.3"/>
	</radialGradient>
	<path class="st4" d="M95.1,0c25.5,0,46.2,20.7,46.2,46.2c0,25.5-20.7,46.2-46.2,46.2c-25.5,0-46.2-20.7-46.2-46.2
		C48.9,20.7,69.6,0,95.1,0L95.1,0z"/>
</g>
</svg>
