<?xml version="1.0" encoding="utf-8"?>
<!-- Generator: Adobe Illustrator 19.1.0, SVG Export Plug-In . SVG Version: 6.00 Build 0)  -->
<svg version="1.1" xmlns="http://www.w3.org/2000/svg" xmlns:xlink="http://www.w3.org/1999/xlink" x="0px" y="0px"
	 viewBox="0 0 189.2 68.3" style="enable-background:new 0 0 189.2 68.3;" xml:space="preserve">
<style type="text/css">
	.st0{fill:#FFD800;stroke:#FFD800;stroke-width:0.216;stroke-miterlimit:2;}
	.st1{fill:#FFFFFF;}
</style>
<g>
</g>
<g>
	<g>
		<path class="st0" d="M0.1,55.7V0.1h38.8v55.5H0.1L0.1,55.7z M33.3,50.1V5.7H5.7v44.4H33.3L33.3,50.1z"/>
		<path class="st1" d="M64.6,25h-2.4c-3.1-4.4-6.3-8.9-9.4-13.9h0V25h-2.7V5.7h2.4c3.1,4.4,6.3,8.8,9.4,13.8H62V5.7h2.7V25L64.6,25z
			"/>
		<path class="st1" d="M70.9,17.4c0.8-2.5,1.5-4.9,2.2-7.9h0.1c0.8,3,1.5,5.3,2.2,7.9H70.9L70.9,17.4z M72.2,5.7L65.5,25h2.9
			l1.7-5.3h5.8l1.5,5.3h3.7L75,5.7H72.2L72.2,5.7z"/>
		<polygon class="st1" points="84.2,25 84.2,8.3 79.1,8.3 79.1,5.7 92.6,5.7 92.6,8.3 87.5,8.3 87.5,25 84.2,25 		"/>
		<polygon class="st1" points="93.7,25 93.7,5.7 97,5.7 97,25 93.7,25 		"/>
		<path class="st1" d="M107.2,22.6c-3.5,0-4.7-3.8-4.7-7.5c0-3.6,1.4-7,4.7-7c3.3,0,4.7,3.4,4.7,7C111.9,18.8,110.7,22.6,107.2,22.6
			L107.2,22.6z M107.2,25.4c5.1,0,8.2-4.5,8.2-10.3c0-5.4-3.5-9.7-8.2-9.7c-4.7,0-8.2,4.3-8.2,9.7C99,20.9,102.2,25.4,107.2,25.4
			L107.2,25.4z"/>
		<path class="st1" d="M131.9,25h-2.4c-3.1-4.4-6.3-8.9-9.4-13.9h0V25h-2.7V5.7h2.4c3.1,4.4,6.3,8.8,9.4,13.8h0.1V5.7h2.7V25
			L131.9,25z"/>
		<path class="st1" d="M138.2,17.4c0.8-2.5,1.5-4.9,2.2-7.9h0.1c0.8,3,1.5,5.3,2.2,7.9H138.2L138.2,17.4z M139.5,5.7L132.8,25h2.9
			l1.7-5.3h5.8l1.5,5.3h3.7l-6.2-19.3H139.5L139.5,5.7z"/>
		<polygon class="st1" points="149.4,5.7 152.6,5.7 152.6,22.4 159.2,22.4 159.2,25 149.4,25 149.4,5.7 		"/>
		<path class="st1" d="M62.6,41.2v8c-1.8,0.7-3.6,1.2-5.5,1.2c-5.7,0-9.3-4.4-9.3-10.1c0-5.3,3.6-9.9,9.4-9.9c1.8,0,3.6,0.7,4.7,1.5
			l-1.1,2.3c-0.9-0.6-2.3-1-3.5-1c-3.5,0-5.9,2.8-5.9,7.2c0,4.6,2.8,7.3,5.6,7.3c0.9,0,1.6-0.1,2.3-0.5v-5.9H62.6L62.6,41.2z"/>
		<polygon class="st1" points="74.4,33.3 68.9,33.3 68.9,38.6 74.3,38.6 74.3,41.2 68.9,41.2 68.9,47.4 75.4,47.4 75.4,50 65.6,50 
			65.6,30.7 74.4,30.7 74.4,33.3 		"/>
		<path class="st1" d="M84.6,47.6c-3.5,0-4.7-3.8-4.7-7.5c0-3.6,1.4-7,4.7-7c3.3,0,4.7,3.4,4.7,7C89.3,43.8,88.1,47.6,84.6,47.6
			L84.6,47.6z M84.6,50.4c5.1,0,8.2-4.5,8.2-10.3c0-5.4-3.5-9.7-8.2-9.7c-4.7,0-8.2,4.3-8.2,9.7C76.4,45.9,79.6,50.4,84.6,50.4
			L84.6,50.4z"/>
		<path class="st1" d="M108.8,41.2v8c-1.8,0.7-3.6,1.2-5.5,1.2c-5.7,0-9.3-4.4-9.3-10.1c0-5.3,3.6-9.9,9.4-9.9
			c1.8,0,3.6,0.7,4.7,1.5l-1.1,2.3c-0.9-0.6-2.3-1-3.5-1c-3.5,0-5.9,2.8-5.9,7.2c0,4.6,2.8,7.3,5.6,7.3c0.9,0,1.6-0.1,2.3-0.5v-5.9
			H108.8L108.8,41.2z"/>
		<path class="st1" d="M115.1,33.3h1.5c2,0,3.1,1.1,3.1,3.1c0,2.6-1.6,3.8-3.1,3.8c-0.3,0-1.1,0.1-1.4,0.1V33.3L115.1,33.3z
			 M123.5,50l-3.9-8c2.1-1.1,3.3-3.4,3.3-5.7c0-3.8-2.3-5.6-6-5.6h-5.2V50h3.3v-7.3h1.4h0.1l3.1,7.3H123.5L123.5,50z"/>
		<path class="st1" d="M129,42.4c0.8-2.5,1.5-4.9,2.2-7.9h0.1c0.8,3,1.5,5.3,2.2,7.9H129L129,42.4z M130.2,30.7L123.6,50h2.9
			l1.7-5.3h5.8l1.5,5.3h3.7L133,30.7H130.2L130.2,30.7z"/>
		<path class="st1" d="M143.5,50h-3.3V30.7h5.2c3.7,0,6,1.8,6,5.6c0,3.3-2.4,6.5-6.4,6.5h-1.5v-2.4c0.2,0,1.1-0.1,1.4-0.1
			c1.6-0.1,3.1-1.2,3.1-3.8c0-2-1.1-3.1-3-3.1h-1.5V50L143.5,50z"/>
		<polygon class="st1" points="166.7,50 163.4,50 163.4,40.7 156.5,40.7 156.5,50 153.3,50 153.3,30.7 156.5,30.7 156.5,38.1 
			163.4,38.1 163.4,30.8 166.7,30.8 166.7,50 		"/>
		<polygon class="st1" points="169.9,50 169.9,30.7 173.2,30.7 173.2,50 169.9,50 		"/>
		<path class="st1" d="M188.1,34.2c-0.8-0.5-2.1-1.1-3.4-1.1c-3.4,0-5.8,2.8-5.8,7.2c0,4.6,2.7,7.3,5.9,7.3c1.3,0,2.5-0.4,3.3-1
			L189,49c-1,0.7-2.8,1.3-4.4,1.3c-5.7,0-9.3-4.4-9.3-10.1c0-5.3,3.6-9.9,9.3-9.9c1.7,0,3.3,0.7,4.4,1.5L188.1,34.2L188.1,34.2z"/>
		<g>
			<path class="st1" d="M63.3,66.5c-2.2,0-3-2.5-3-4.8c0-2.3,0.9-4.5,3-4.5c2.1,0,3,2.2,3,4.5C66.3,64.1,65.5,66.5,63.3,66.5
				L63.3,66.5z M63.3,68.3c3.3,0,5.3-2.9,5.3-6.6c0-3.5-2.2-6.3-5.3-6.3c-3,0-5.3,2.8-5.3,6.3C58,65.4,60,68.3,63.3,68.3L63.3,68.3z
				"/>
			<path class="st1" d="M104.2,57.3l0,4.5c-0.2,0-0.7,0-0.9,0c-1.1,0-2-0.5-2-2.5c0-1.3,0.7-2,2-2H104.2L104.2,57.3z M98.2,68.1h2.4
				l2.7-4.7h0h0.9v4.7h2.1V55.6H103c-2.4,0-3.9,1.2-3.9,3.6c0,1.5,0.1,2.9,2.2,3.7L98.2,68.1L98.2,68.1z"/>
			<path class="st1" d="M52.3,68.1h-2.1V55.6h3.3c2.4,0,3.9,1.2,3.9,3.6c0,2.1-1.5,4.2-4.1,4.2h-1v-1.5c0.1,0,0.7,0,0.9-0.1
				c1-0.1,2-0.8,2-2.5c0-1.3-0.7-2-2-2h-1V68.1L52.3,68.1z"/>
			<polygon class="st1" points="90.9,68.1 88.8,68.1 88.8,55.6 90.9,55.6 90.9,64.9 95.3,55.7 97.5,55.7 97.5,68.1 97.5,68.1 
				95.3,68.1 95.3,58.9 			"/>
			<path class="st1" d="M77.6,57.9c-0.5-0.3-1.4-0.7-2.2-0.7c-2.2,0-3.8,1.8-3.8,4.6c0,3,1.7,4.7,3.8,4.7c0.8,0,1.6-0.3,2.1-0.6
				l0.6,1.5c-0.6,0.4-1.8,0.9-2.8,0.9c-3.7,0-6-2.8-6-6.5c0-3.4,2.3-6.4,6-6.4c1.1,0,2.1,0.5,2.9,1L77.6,57.9L77.6,57.9z"/>
			<path class="st1" d="M86.1,57.9c-0.5-0.3-1.4-0.7-2.2-0.7c-2.2,0-3.8,1.8-3.8,4.6c0,3,1.7,4.7,3.8,4.7c0.8,0,1.6-0.3,2.1-0.6
				l0.6,1.5c-0.6,0.4-1.8,0.9-2.8,0.9c-3.7,0-6-2.8-6-6.5c0-3.4,2.3-6.4,6-6.4c1.1,0,2.1,0.5,2.9,1L86.1,57.9L86.1,57.9z"/>
		</g>
	</g>
</g>
</svg>
