<?xml version="1.0" encoding="utf-8"?>
<!-- Generator: Adobe Illustrator 19.1.0, SVG Export Plug-In . SVG Version: 6.00 Build 0)  -->
<svg version="1.1" id="Layer_1" xmlns="http://www.w3.org/2000/svg" xmlns:xlink="http://www.w3.org/1999/xlink" x="0px" y="0px"
	 viewBox="0 0 247.8 87.4" style="enable-background:new 0 0 247.8 87.4;" xml:space="preserve">
<style type="text/css">
	.st0{fill:#FBD42C;}
	.st1{fill:#FFFFFF;}
</style>
<g>
	<g>
		<g>
			<g>
				<path class="st0" d="M0,86.9V0.3h60.5v86.7H0z M51.7,78.2V9h-43v69.2H51.7z"/>
			</g>
		</g>
	</g>
	<g>
		<path class="st1" d="M92.6,24.5h-3C85.7,19,81.8,13.5,77.9,7.2h0v17.3h-3.3V0.4h3c3.9,5.5,7.8,11,11.7,17.2h0.1V0.4h3.3V24.5z"/>
		<path class="st1" d="M100.4,15c1-3.2,1.9-6.1,2.8-9.8h0.1c1,3.7,1.8,6.6,2.7,9.8H100.4z M102,0.4l-8.3,24.1h3.6l2.1-6.6h7.3
			l1.9,6.6h4.6l-7.7-24.1H102z"/>
		<path class="st1" d="M117,24.5V3.6h-6.3V0.4h16.8v3.2h-6.3v20.9H117z"/>
		<path class="st1" d="M128.8,24.5V0.4h4.1v24.1H128.8z"/>
		<path class="st1" d="M145.7,21.5c-4.3,0-5.8-4.8-5.8-9.4c0-4.4,1.7-8.7,5.8-8.7c4.1,0,5.8,4.2,5.8,8.7
			C151.5,16.7,150,21.5,145.7,21.5z M145.7,24.9c6.3,0,10.2-5.6,10.2-12.8c0-6.8-4.3-12.1-10.2-12.1c-5.9,0-10.2,5.4-10.2,12.1
			C135.4,19.3,139.4,24.9,145.7,24.9z"/>
		<path class="st1" d="M176.4,24.5h-3c-3.9-5.5-7.8-11.1-11.7-17.3h0v17.3h-3.3V0.4h3c3.9,5.5,7.8,11,11.7,17.2h0.1V0.4h3.3V24.5z"
			/>
		<path class="st1" d="M184.3,15c1-3.2,1.9-6.1,2.8-9.8h0.1c1,3.7,1.8,6.6,2.7,9.8H184.3z M185.9,0.4l-8.3,24.1h3.6l2.1-6.6h7.3
			l1.9,6.6h4.6l-7.7-24.1H185.9z"/>
		<path class="st1" d="M198.2,0.4h4.1v20.9h8.2v3.2h-12.3V0.4z"/>
		<g>
			<path class="st1" d="M90,44.7v9.9c-2.2,0.9-4.5,1.5-6.9,1.5c-7.1,0-11.6-5.5-11.6-12.6c0-6.6,4.5-12.3,11.7-12.3
				c2.2,0,4.5,0.8,5.9,1.9l-1.3,2.9c-1.1-0.7-2.8-1.3-4.4-1.3c-4.4,0-7.4,3.5-7.4,8.9c0,5.7,3.4,9.1,7,9.1c1.1,0,2-0.1,2.9-0.6v-7.4
				H90z"/>
			<path class="st1" d="M104.8,34.8h-6.9v6.6h6.7v3.2h-6.7v7.8h8.1v3.2H93.8V31.6h11V34.8z"/>
			<path class="st1" d="M117.5,52.7c-4.3,0-5.8-4.8-5.8-9.4c0-4.4,1.7-8.7,5.8-8.7c4.1,0,5.8,4.2,5.8,8.7
				C123.4,47.9,121.9,52.7,117.5,52.7z M117.5,56.1c6.3,0,10.2-5.6,10.2-12.8c0-6.7-4.3-12.1-10.2-12.1c-5.9,0-10.2,5.4-10.2,12.1
				C107.3,50.5,111.3,56.1,117.5,56.1z"/>
			<path class="st1" d="M147.6,44.7v9.9c-2.2,0.9-4.5,1.5-6.8,1.5c-7.1,0-11.6-5.5-11.6-12.6c0-6.6,4.5-12.3,11.7-12.3
				c2.2,0,4.5,0.8,5.9,1.9l-1.3,2.9c-1.1-0.7-2.8-1.3-4.4-1.3c-4.4,0-7.4,3.5-7.4,8.9c0,5.7,3.4,9.1,7,9.1c1.1,0,2-0.1,2.9-0.6v-7.4
				H147.6z"/>
			<path class="st1" d="M155.5,34.8h1.8c2.4,0,3.8,1.4,3.8,3.9c0,3.2-2,4.7-3.9,4.8c-0.4,0-1.4,0.1-1.7,0.1V34.8z M166,55.7l-4.9-10
				c2.6-1.4,4.2-4.3,4.2-7.2c0-4.7-2.9-7-7.5-7h-6.4v24.1h4.1v-9.1h1.8h0.1l3.9,9.1H166z"/>
			<path class="st1" d="M172.8,46.2c1-3.2,1.9-6.1,2.8-9.8h0.1c1,3.7,1.8,6.6,2.7,9.8H172.8z M174.4,31.6l-8.3,24.1h3.6l2.1-6.6h7.3
				l1.9,6.6h4.6l-7.7-24.1H174.4z"/>
			<path class="st1" d="M190.9,55.7h-4.1V31.6h6.4c4.6,0,7.5,2.3,7.5,7c0,4.1-3,8.1-7.9,8.1h-1.9v-3c0.2,0,1.3-0.1,1.8-0.1
				c2-0.1,3.9-1.5,3.9-4.8c0-2.5-1.4-3.9-3.8-3.9h-1.9V55.7z"/>
			<path class="st1" d="M219.9,55.7h-4.1V44.1h-8.6v11.6h-4.1V31.6h4.1v9.3h8.6v-9.2h4.1V55.7z"/>
			<path class="st1" d="M223.8,55.7V31.6h4.1v24.1H223.8z"/>
			<path class="st1" d="M246.5,36c-1-0.6-2.7-1.3-4.2-1.3c-4.2,0-7.3,3.5-7.3,8.9c0,5.7,3.4,9.1,7.4,9.1c1.6,0,3.1-0.5,4.1-1.2
				l1.1,3c-1.2,0.9-3.4,1.6-5.4,1.6c-7.1,0-11.6-5.5-11.6-12.6c0-6.6,4.4-12.3,11.6-12.3c2.1,0,4.1,0.9,5.5,1.9L246.5,36z"/>
		</g>
	</g>
	<g>
		<path class="st1" d="M87.4,67.3c-1-0.6-2.6-1.3-4.2-1.3c-4.2,0-7.2,3.5-7.2,8.9c0,5.7,3.4,9.1,7.3,9.1c1.6,0,3.1-0.5,4.1-1.2
			l1.1,3c-1.2,0.9-3.4,1.6-5.4,1.6c-7.1,0-11.5-5.5-11.5-12.6c0-6.6,4.4-12.3,11.6-12.3c2.1,0,4.1,0.9,5.5,1.9L87.4,67.3z"/>
		<path class="st1" d="M106.7,86.9h-4.1V75.4H94v11.6h-4.1v-24H94v9.2h8.5V63h4.1V86.9z"/>
		<path class="st1" d="M114.9,77.4c1-3.2,1.9-6.1,2.8-9.8h0.1c1,3.7,1.8,6.6,2.7,9.8H114.9z M116.5,62.9l-8.3,24h3.6l2.1-6.6h7.2
			l1.9,6.6h4.6l-7.7-24H116.5z"/>
		<path class="st1" d="M147,86.9h-3c-3.9-5.5-7.8-11-11.7-17.2h0v17.2h-3.3v-24h3c3.9,5.5,7.8,11,11.6,17.1h0.1V62.9h3.3V86.9z"/>
		<path class="st1" d="M168.9,86.9h-3c-3.9-5.5-7.8-11-11.7-17.2h0v17.2h-3.3v-24h3c3.9,5.5,7.8,11,11.6,17.1h0.1V62.9h3.3V86.9z"/>
		<path class="st1" d="M183.1,66.1h-6.9v6.6h6.7V76h-6.7v7.8h8.1v3.2h-12.2v-24h11V66.1z"/>
		<path class="st1" d="M186.7,62.9h4.1v20.8h8.1v3.2h-12.2V62.9z"/>
	</g>
</g>
</svg>
